<svg height="70" width="100" viewBox="0 0 100 70" xmlns="http://www.w3.org/2000/svg" shape-rendering="crispEdges"><g fill="none"><path d="m80 5h5v5h15v50h-15v5h-5v5h-20v-25h-5v5h-10v5h-10-10v-5h-10v-5h-15v-45h15v5h10v5h10 10v-5h10v-5h5 20z" fill="#fff"/><path d="m25 15h10v35h-10v-5h-10v-5h-5-5v-35h5 5v5h10z" fill="#30f2a2"/><path d="m85 15h10v35h-10v-5h-10v-5h-5-5v-35h5 5v5h10z" fill="#30f2a2"/><g fill="#14cc80"><path d="m55 40v5h-10v5h-10v-35h10v-5h10v-5h10v35z"/><path d="m85 55v5h-10v5h-10v-30h10v-5h10v-5h10v30z"/></g></g></svg>