<?xml version="1.0" encoding="UTF-8"?>
<svg width="20px" height="20px" viewBox="0 0 20 20" version="1.1" xmlns="http://www.w3.org/2000/svg" xmlns:xlink="http://www.w3.org/1999/xlink">
    <!-- Generator: Sketch 52.2 (67145) - http://www.bohemiancoding.com/sketch -->
    <title>2FA</title>
    <desc>Created with Sketch.</desc>
    <g id="2FA" stroke="none" stroke-width="1" fill="none" fill-rule="evenodd">
        <path d="M13,11 L7,11 C5.8954305,11 5,11.8954305 5,13 L5,17 C5,17.3642871 5.09739429,17.7058266 5.26756439,18 L3,18 C2.44771525,18 2,17.5522847 2,17 L2,9 C2,8.44771525 2.44771525,8 3,8 L3,6 C3,3.790861 4.790861,2 7,2 L8,2 C10.209139,2 12,3.790861 12,6 L12,8 C12.5522847,8 13,8.44771525 13,9 L13,11 Z M5,8 L10,8 L10,6 C10,4.8954305 9.1045695,4 8,4 L7,4 C5.8954305,4 5,4.8954305 5,6 L5,8 Z" id="Combined-Shape" fill="#333333"></path>
        <rect id="Rectangle" stroke="#333333" x="6.5" y="12.5" width="11" height="5" rx="2"></rect>
        <circle id="Oval" fill="#333333" cx="9" cy="15" r="1"></circle>
        <circle id="Oval-Copy" fill="#333333" cx="12" cy="15" r="1"></circle>
        <circle id="Oval-Copy-2" fill="#333333" cx="15" cy="15" r="1"></circle>
    </g>
</svg>