<?xml version="1.0" encoding="UTF-8"?>
<svg width="20px" height="20px" viewBox="0 0 20 20" version="1.1" xmlns="http://www.w3.org/2000/svg" xmlns:xlink="http://www.w3.org/1999/xlink">
    <!-- Generator: Sketch 52.2 (67145) - http://www.bohemiancoding.com/sketch -->
    <title>2FA</title>
    <desc>Created with Sketch.</desc>
    <g id="2FA" stroke="none" stroke-width="1" fill="none" fill-rule="evenodd">
        <path d="M13,10 L6,10 C4.8954305,10 4,10.8954305 4,12 L4,16 C4,17.1045695 4.8954305,18 6,18 L13,18 C13,18.5522847 12.5522847,19 12,19 L2,19 C1.44771525,19 1,18.5522847 1,18 L1,9 C1,8.44771525 1.44771525,8 2,8 L2,6.81818182 C2,4.15717348 4.15717348,2 6.81818182,2 L7.18181818,2 C9.84282652,2 12,4.15717348 12,6.81818182 L12,8 C12.5522847,8 13,8.44771525 13,9 L13,10 Z M4,8 L10,8 L10,7 C10,5.34314575 8.65685425,4 7,4 C5.34314575,4 4,5.34314575 4,7 L4,8 Z" id="Combined-Shape" fill="#333333"></path>
        <rect id="Rectangle" stroke="#333333" x="5.5" y="11.5" width="13" height="5" rx="2"></rect>
        <circle id="Oval" fill="#333333" cx="9" cy="14" r="1"></circle>
        <circle id="Oval-Copy" fill="#333333" cx="12" cy="14" r="1"></circle>
        <circle id="Oval-Copy-2" fill="#333333" cx="15" cy="14" r="1"></circle>
    </g>
</svg>