<?xml version="1.0" encoding="UTF-8"?>
<svg width="120px" height="84px" viewBox="0 0 120 84" version="1.1" xmlns="http://www.w3.org/2000/svg" xmlns:xlink="http://www.w3.org/1999/xlink">
    <!-- Generator: Sketch 51.1 (57501) - http://www.bohemiancoding.com/sketch -->
    <title>buildkite-qr</title>
    <desc>Created with Sketch.</desc>
    <defs></defs>
    <g id="buildkite-qr" stroke="none" stroke-width="1" fill="none" fill-rule="evenodd">
        <path d="M96,6 L102,6 L102,12 L120,12 L120,72 L102,72 L102,78 L96,78 L96,84 L72,84 L72,54 L66,54 L66,60 L54,60 L54,66 L42,66 L30,66 L30,60 L18,60 L18,54 L0,54 L0,0 L18,0 L18,6 L30,6 L30,12 L42,12 L54,12 L54,6 L66,6 L66,0 L72,0 L96,0 L96,6 Z" id="Combined-Shape" fill="#FFFFFF"></path>
        <path d="M30,18 L42,18 L42,60 L30,60 L30,54 L18,54 L18,48 L12,48 L6,48 L6,6 L12,6 L18,6 L18,12 L30,12 L30,18 Z" id="Combined-Shape" fill="#30F2A2"></path>
        <path d="M102,18 L114,18 L114,60 L102,60 L102,54 L90,54 L90,48 L84,48 L78,48 L78,6 L84,6 L90,6 L90,12 L102,12 L102,18 Z" id="Combined-Shape" fill="#30F2A2"></path>
        <path d="M66,48 L66,54 L54,54 L54,60 L42,60 L42,18 L54,18 L54,12 L66,12 L66,6 L78,6 L78,48 L66,48 Z" id="Combined-Shape" fill="#14CC80"></path>
        <path d="M102,66 L102,72 L90,72 L90,78 L78,78 L78,42 L90,42 L90,36 L102,36 L102,30 L114,30 L114,66 L102,66 Z" id="Combined-Shape" fill="#14CC80"></path>
    </g>
</svg>